<svg xmlns="http://www.w3.org/2000/svg" xmlns:xlink="http://www.w3.org/1999/xlink" contentStyleType="text/css" data-diagram-type="SEQUENCE" height="1580px" preserveAspectRatio="none" style="width:1630px;height:1580px;background:#FFFFFF;" version="1.1" viewBox="0 0 1630 1580" width="1630px" zoomAndPan="magnify"><title>MES &#1057;&#1080;&#1089;&#1090;&#1077;&#1084;&#1072;: &#1054;&#1073;&#1085;&#1086;&#1074;&#1083;&#1077;&#1085;&#1080;&#1077; &#1089;&#1090;&#1072;&#1090;&#1091;&#1089;&#1072; &#1079;&#1072;&#1082;&#1072;&#1079;&#1086;&#1074;</title><defs/><g><text fill="#000000" font-family="sans-serif" font-size="14" font-weight="bold" lengthAdjust="spacing" textLength="314.6488" x="654.0452" y="29.9659">MES &#1057;&#1080;&#1089;&#1090;&#1077;&#1084;&#1072;: &#1054;&#1073;&#1085;&#1086;&#1074;&#1083;&#1077;&#1085;&#1080;&#1077; &#1089;&#1090;&#1072;&#1090;&#1091;&#1089;&#1072; &#1079;&#1072;&#1082;&#1072;&#1079;&#1086;&#1074;</text><g><title>MES SPA</title><rect fill="#FFFFFF" height="318.7662" style="stroke:#181818;stroke-width:1;" width="10" x="245.942" y="203.5479"/></g><g><title>MES SPA</title><rect fill="#FFFFFF" height="269.3541" style="stroke:#181818;stroke-width:1;" width="10" x="245.942" y="817.3742"/></g><g><title>MES API.</title><rect fill="#FFFFFF" height="255.3541" style="stroke:#181818;stroke-width:1;" width="10" x="531.4712" y="235.2539"/></g><g><title>MES API.</title><rect fill="#FFFFFF" height="205.9421" style="stroke:#181818;stroke-width:1;" width="10" x="531.4712" y="849.0802"/></g><g><title>Postgres</title><rect fill="#FFFFFF" height="31.706" style="stroke:#181818;stroke-width:1;" width="10" x="903.1125" y="266.9599"/></g><g><title>Postgres</title><rect fill="#FFFFFF" height="31.706" style="stroke:#181818;stroke-width:1;" width="10" x="903.1125" y="571.7261"/></g><g><title>Postgres</title><rect fill="#FFFFFF" height="31.706" style="stroke:#181818;stroke-width:1;" width="10" x="903.1125" y="880.7862"/></g><g><title>Postgres</title><rect fill="#FFFFFF" height="31.706" style="stroke:#181818;stroke-width:1;" width="10" x="903.1125" y="1310.3765"/></g><g><title>Redis</title><rect fill="#FFFFFF" height="31.706" style="stroke:#181818;stroke-width:1;" width="10" x="965.7254" y="635.1381"/></g><g><title>Redis</title><rect fill="#FFFFFF" height="31.706" style="stroke:#181818;stroke-width:1;" width="10" x="965.7254" y="1373.7885"/></g><g><title>MES API.</title><rect fill="#FFFFFF" height="281.0602" style="stroke:#181818;stroke-width:1;" width="10" x="1298.7956" y="385.784"/></g><g><title>MES API.</title><rect fill="#FFFFFF" height="318.7662" style="stroke:#181818;stroke-width:1;" width="10" x="1298.7956" y="1086.7284"/></g><g><title>........</title><rect fill="#000000" fill-opacity="0.00000" height="1372.4768" width="8" x="37.8869" y="124.1358"/><line style="stroke:#181818;stroke-width:0.5;stroke-dasharray:5,5;" x1="41" x2="41" y1="124.1358" y2="1496.6126"/></g><g><title>MES SPA</title><rect fill="#000000" fill-opacity="0.00000" height="1372.4768" width="8" x="246.942" y="124.1358"/><line style="stroke:#181818;stroke-width:0.5;stroke-dasharray:5,5;" x1="250.4871" x2="250.4871" y1="124.1358" y2="1496.6126"/></g><g><title>MES API.</title><rect fill="#000000" fill-opacity="0.00000" height="1372.4768" width="8" x="532.4712" y="124.1358"/><line style="stroke:#181818;stroke-width:0.5;stroke-dasharray:5,5;" x1="536.2624" x2="536.2624" y1="124.1358" y2="1496.6126"/></g><g><title>Postgres</title><rect fill="#000000" fill-opacity="0.00000" height="1372.4768" width="8" x="904.1125" y="124.1358"/><line style="stroke:#181818;stroke-width:0.5;stroke-dasharray:5,5;" x1="907.2656" x2="907.2656" y1="124.1358" y2="1496.6126"/></g><g><title>Redis</title><rect fill="#000000" fill-opacity="0.00000" height="1372.4768" width="8" x="966.7254" y="124.1358"/><line style="stroke:#181818;stroke-width:0.5;stroke-dasharray:5,5;" x1="969.9594" x2="969.9594" y1="124.1358" y2="1496.6126"/></g><g><title>MES API.</title><rect fill="#000000" fill-opacity="0.00000" height="1372.4768" width="8" x="1299.7956" y="124.1358"/><line style="stroke:#181818;stroke-width:0.5;stroke-dasharray:5,5;" x1="1302.8879" x2="1302.8879" y1="124.1358" y2="1496.6126"/></g><g class="participant participant-head" data-participant="User"><text fill="#000000" font-family="sans-serif" font-size="14" lengthAdjust="spacing" textLength="67.7737" x="5" y="120.0339">&#1054;&#1087;&#1077;&#1088;&#1072;&#1090;&#1086;&#1088;</text><ellipse cx="41.8869" cy="53.5679" fill="#E2E2F0" rx="8" ry="8" style="stroke:#181818;stroke-width:0.5;"/><path d="M41.8869,61.5679 L41.8869,88.5679 M28.8869,69.5679 L54.8869,69.5679 M41.8869,88.5679 L28.8869,103.5679 M41.8869,88.5679 L54.8869,103.5679" fill="none" style="stroke:#181818;stroke-width:0.5;"/></g><g class="participant participant-tail" data-participant="User"><text fill="#000000" font-family="sans-serif" font-size="14" lengthAdjust="spacing" textLength="67.7737" x="5" y="1510.5785">&#1054;&#1087;&#1077;&#1088;&#1072;&#1090;&#1086;&#1088;</text><ellipse cx="41.8869" cy="1523.1805" fill="#E2E2F0" rx="8" ry="8" style="stroke:#181818;stroke-width:0.5;"/><path d="M41.8869,1531.1805 L41.8869,1558.1805 M28.8869,1539.1805 L54.8869,1539.1805 M41.8869,1558.1805 L28.8869,1573.1805 M41.8869,1558.1805 L54.8869,1573.1805" fill="none" style="stroke:#181818;stroke-width:0.5;"/></g><g class="participant participant-head" data-participant="SPA"><rect fill="#E2E2F0" height="33.0679" rx="2.5" ry="2.5" style="stroke:#181818;stroke-width:0.5;" width="70.9098" x="215.4871" y="90.0679"/><text fill="#000000" font-family="sans-serif" font-size="14" lengthAdjust="spacing" textLength="56.9098" x="222.4871" y="112.0339">MES SPA</text></g><g class="participant participant-tail" data-participant="SPA"><rect fill="#E2E2F0" height="33.0679" rx="2.5" ry="2.5" style="stroke:#181818;stroke-width:0.5;" width="70.9098" x="215.4871" y="1495.6126"/><text fill="#000000" font-family="sans-serif" font-size="14" lengthAdjust="spacing" textLength="56.9098" x="222.4871" y="1517.5785">MES SPA</text></g><g class="participant participant-head" data-participant="API"><rect fill="#E2E2F0" height="52.1358" rx="2.5" ry="2.5" style="stroke:#181818;stroke-width:0.5;" width="124.4176" x="474.2624" y="71"/><text fill="#000000" font-family="sans-serif" font-size="14" lengthAdjust="spacing" textLength="57.7218" x="507.6103" y="92.9659">MES API:</text><text fill="#000000" font-family="sans-serif" font-size="14" lengthAdjust="spacing" textLength="110.4176" x="481.2624" y="112.0339">&#1086;&#1089;&#1085;&#1086;&#1074;&#1085;&#1086;&#1081; &#1087;&#1086;&#1090;&#1086;&#1082;</text></g><g class="participant participant-tail" data-participant="API"><rect fill="#E2E2F0" height="52.1358" rx="2.5" ry="2.5" style="stroke:#181818;stroke-width:0.5;" width="124.4176" x="474.2624" y="1495.6126"/><text fill="#000000" font-family="sans-serif" font-size="14" lengthAdjust="spacing" textLength="57.7218" x="507.6103" y="1517.5785">MES API:</text><text fill="#000000" font-family="sans-serif" font-size="14" lengthAdjust="spacing" textLength="110.4176" x="481.2624" y="1536.6464">&#1086;&#1089;&#1085;&#1086;&#1074;&#1085;&#1086;&#1081; &#1087;&#1086;&#1090;&#1086;&#1082;</text></g><g class="participant participant-head" data-participant="PG"><text fill="#000000" font-family="sans-serif" font-size="14" lengthAdjust="spacing" textLength="57.6938" x="876.2656" y="120.0339">Postgres</text><path d="M890.1125,69.0679 C890.1125,59.0679 908.1125,59.0679 908.1125,59.0679 C908.1125,59.0679 926.1125,59.0679 926.1125,69.0679 L926.1125,95.0679 C926.1125,105.0679 908.1125,105.0679 908.1125,105.0679 C908.1125,105.0679 890.1125,105.0679 890.1125,95.0679 L890.1125,69.0679" fill="#E2E2F0" style="stroke:#181818;stroke-width:0.5;"/><path d="M890.1125,69.0679 C890.1125,79.0679 908.1125,79.0679 908.1125,79.0679 C908.1125,79.0679 926.1125,79.0679 926.1125,69.0679" fill="none" style="stroke:#181818;stroke-width:0.5;"/></g><g class="participant participant-tail" data-participant="PG"><text fill="#000000" font-family="sans-serif" font-size="14" lengthAdjust="spacing" textLength="57.6938" x="876.2656" y="1510.5785">Postgres</text><path d="M890.1125,1524.6805 C890.1125,1514.6805 908.1125,1514.6805 908.1125,1514.6805 C908.1125,1514.6805 926.1125,1514.6805 926.1125,1524.6805 L926.1125,1550.6805 C926.1125,1560.6805 908.1125,1560.6805 908.1125,1560.6805 C908.1125,1560.6805 890.1125,1560.6805 890.1125,1550.6805 L890.1125,1524.6805" fill="#E2E2F0" style="stroke:#181818;stroke-width:0.5;"/><path d="M890.1125,1524.6805 C890.1125,1534.6805 908.1125,1534.6805 908.1125,1534.6805 C908.1125,1534.6805 926.1125,1534.6805 926.1125,1524.6805" fill="none" style="stroke:#181818;stroke-width:0.5;"/></g><g class="participant participant-head" data-participant="Redis"><text fill="#000000" font-family="sans-serif" font-size="14" lengthAdjust="spacing" textLength="35.5319" x="949.9594" y="120.0339">Redis</text><path d="M952.7254,69.0679 C952.7254,59.0679 970.7254,59.0679 970.7254,59.0679 C970.7254,59.0679 988.7254,59.0679 988.7254,69.0679 L988.7254,95.0679 C988.7254,105.0679 970.7254,105.0679 970.7254,105.0679 C970.7254,105.0679 952.7254,105.0679 952.7254,95.0679 L952.7254,69.0679" fill="#E2E2F0" style="stroke:#181818;stroke-width:0.5;"/><path d="M952.7254,69.0679 C952.7254,79.0679 970.7254,79.0679 970.7254,79.0679 C970.7254,79.0679 988.7254,79.0679 988.7254,69.0679" fill="none" style="stroke:#181818;stroke-width:0.5;"/></g><g class="participant participant-tail" data-participant="Redis"><text fill="#000000" font-family="sans-serif" font-size="14" lengthAdjust="spacing" textLength="35.5319" x="949.9594" y="1510.5785">Redis</text><path d="M952.7254,1524.6805 C952.7254,1514.6805 970.7254,1514.6805 970.7254,1514.6805 C970.7254,1514.6805 988.7254,1514.6805 988.7254,1524.6805 L988.7254,1550.6805 C988.7254,1560.6805 970.7254,1560.6805 970.7254,1560.6805 C970.7254,1560.6805 952.7254,1560.6805 952.7254,1550.6805 L952.7254,1524.6805" fill="#E2E2F0" style="stroke:#181818;stroke-width:0.5;"/><path d="M952.7254,1524.6805 C952.7254,1534.6805 970.7254,1534.6805 970.7254,1534.6805 C970.7254,1534.6805 988.7254,1534.6805 988.7254,1524.6805" fill="none" style="stroke:#181818;stroke-width:0.5;"/></g><g class="participant participant-head" data-participant="CacheThread"><rect fill="#E2E2F0" height="52.1358" rx="2.5" ry="2.5" style="stroke:#181818;stroke-width:0.5;" width="179.8154" x="1213.8879" y="71"/><text fill="#000000" font-family="sans-serif" font-size="14" lengthAdjust="spacing" textLength="57.7218" x="1274.9347" y="92.9659">MES API:</text><text fill="#000000" font-family="sans-serif" font-size="14" lengthAdjust="spacing" textLength="165.8154" x="1220.8879" y="112.0339">&#1087;&#1086;&#1090;&#1086;&#1082; &#1086;&#1073;&#1085;&#1086;&#1074;&#1083;&#1077;&#1085;&#1080;&#1103; &#1082;&#1101;&#1096;&#1072;</text></g><g class="participant participant-tail" data-participant="CacheThread"><rect fill="#E2E2F0" height="52.1358" rx="2.5" ry="2.5" style="stroke:#181818;stroke-width:0.5;" width="179.8154" x="1213.8879" y="1495.6126"/><text fill="#000000" font-family="sans-serif" font-size="14" lengthAdjust="spacing" textLength="57.7218" x="1274.9347" y="1517.5785">MES API:</text><text fill="#000000" font-family="sans-serif" font-size="14" lengthAdjust="spacing" textLength="165.8154" x="1220.8879" y="1536.6464">&#1087;&#1086;&#1090;&#1086;&#1082; &#1086;&#1073;&#1085;&#1086;&#1074;&#1083;&#1077;&#1085;&#1080;&#1103; &#1082;&#1101;&#1096;&#1072;</text></g><g><title>MES SPA</title><rect fill="#FFFFFF" height="318.7662" style="stroke:#181818;stroke-width:1;" width="10" x="245.942" y="203.5479"/></g><g><title>MES SPA</title><rect fill="#FFFFFF" height="269.3541" style="stroke:#181818;stroke-width:1;" width="10" x="245.942" y="817.3742"/></g><g><title>MES API.</title><rect fill="#FFFFFF" height="255.3541" style="stroke:#181818;stroke-width:1;" width="10" x="531.4712" y="235.2539"/></g><g><title>MES API.</title><rect fill="#FFFFFF" height="205.9421" style="stroke:#181818;stroke-width:1;" width="10" x="531.4712" y="849.0802"/></g><g><title>Postgres</title><rect fill="#FFFFFF" height="31.706" style="stroke:#181818;stroke-width:1;" width="10" x="903.1125" y="266.9599"/></g><g><title>Postgres</title><rect fill="#FFFFFF" height="31.706" style="stroke:#181818;stroke-width:1;" width="10" x="903.1125" y="571.7261"/></g><g><title>Postgres</title><rect fill="#FFFFFF" height="31.706" style="stroke:#181818;stroke-width:1;" width="10" x="903.1125" y="880.7862"/></g><g><title>Postgres</title><rect fill="#FFFFFF" height="31.706" style="stroke:#181818;stroke-width:1;" width="10" x="903.1125" y="1310.3765"/></g><g><title>Redis</title><rect fill="#FFFFFF" height="31.706" style="stroke:#181818;stroke-width:1;" width="10" x="965.7254" y="635.1381"/></g><g><title>Redis</title><rect fill="#FFFFFF" height="31.706" style="stroke:#181818;stroke-width:1;" width="10" x="965.7254" y="1373.7885"/></g><g><title>MES API.</title><rect fill="#FFFFFF" height="281.0602" style="stroke:#181818;stroke-width:1;" width="10" x="1298.7956" y="385.784"/></g><g><title>MES API.</title><rect fill="#FFFFFF" height="318.7662" style="stroke:#181818;stroke-width:1;" width="10" x="1298.7956" y="1086.7284"/></g><rect fill="#EEEEEE" height="3" style="stroke:#EEEEEE;stroke-width:1;" width="1623.7392" x="0" y="155.9888"/><line style="stroke:#000000;stroke-width:1;" x1="0" x2="1623.7392" y1="155.9888" y2="155.9888"/><line style="stroke:#000000;stroke-width:1;" x1="0" x2="1623.7392" y1="158.9888" y2="158.9888"/><rect fill="#EEEEEE" height="25.706" style="stroke:#000000;stroke-width:2;" width="202.3572" x="710.691" y="144.1358"/><text fill="#000000" font-family="sans-serif" font-size="13" font-weight="bold" lengthAdjust="spacing" textLength="184.9772" x="716.691" y="162.0328">&#1055;&#1077;&#1088;&#1074;&#1086;&#1077; &#1086;&#1073;&#1085;&#1086;&#1074;&#1083;&#1077;&#1085;&#1080;&#1077; &#1079;&#1072;&#1082;&#1072;&#1079;&#1072;</text><g class="message" data-participant-1="User" data-participant-2="SPA"><polygon fill="#181818" points="233.942,199.5479,243.942,203.5479,233.942,207.5479,237.942,203.5479" style="stroke:#181818;stroke-width:1;"/><line style="stroke:#181818;stroke-width:1;" x1="41.8869" x2="239.942" y1="203.5479" y2="203.5479"/><text fill="#000000" font-family="sans-serif" font-size="13" lengthAdjust="spacing" textLength="185.0551" x="48.8869" y="197.7389">&#1048;&#1079;&#1084;&#1077;&#1085;&#1080;&#1090;&#1100; &#1089;&#1090;&#1072;&#1090;&#1091;&#1089; &#1079;&#1072;&#1082;&#1072;&#1079;&#1072; #123</text></g><g class="message" data-participant-1="SPA" data-participant-2="API"><polygon fill="#181818" points="519.4712,231.2539,529.4712,235.2539,519.4712,239.2539,523.4712,235.2539" style="stroke:#181818;stroke-width:1;"/><line style="stroke:#181818;stroke-width:1;" x1="255.942" x2="525.4712" y1="235.2539" y2="235.2539"/><text fill="#000000" font-family="sans-serif" font-size="13" lengthAdjust="spacing" textLength="247.7802" x="262.942" y="229.4449">PUT /api/orders/123 {status: "&#1042; &#1088;&#1072;&#1073;&#1086;&#1090;&#1077;"}</text></g><g class="message" data-participant-1="API" data-participant-2="PG"><polygon fill="#181818" points="891.1125,262.9599,901.1125,266.9599,891.1125,270.9599,895.1125,266.9599" style="stroke:#181818;stroke-width:1;"/><line style="stroke:#181818;stroke-width:1;" x1="541.4712" x2="897.1125" y1="266.9599" y2="266.9599"/><text fill="#000000" font-family="sans-serif" font-size="13" lengthAdjust="spacing" textLength="333.8923" x="548.4712" y="261.1509">UPDATE orders SET status = '&#1042; &#1088;&#1072;&#1073;&#1086;&#1090;&#1077;' WHERE id = 123</text></g><g class="message" data-participant-1="PG" data-participant-2="API"><polygon fill="#181818" points="552.4712,294.6659,542.4712,298.6659,552.4712,302.6659,548.4712,298.6659" style="stroke:#181818;stroke-width:1;"/><line style="stroke:#181818;stroke-width:1;stroke-dasharray:2,2;" x1="546.4712" x2="907.1125" y1="298.6659" y2="298.6659"/><text fill="#000000" font-family="sans-serif" font-size="13" lengthAdjust="spacing" textLength="54.5741" x="558.4712" y="292.8569">SUCCESS</text></g><path d="M546,311.6659 L546,356.6659 L738,356.6659 L738,321.6659 L728,311.6659 L546,311.6659" fill="#FEFFDD" style="stroke:#181818;stroke-width:0.5;"/><path d="M728,311.6659 L728,321.6659 L738,321.6659 L728,311.6659" fill="#FEFFDD" style="stroke:#181818;stroke-width:0.5;"/><text fill="#000000" font-family="sans-serif" font-size="13" lengthAdjust="spacing" textLength="114.4261" x="552" y="330.5629">&#1055;&#1088;&#1086;&#1074;&#1077;&#1088;&#1082;&#1072; &#1092;&#1083;&#1072;&#1075;&#1086;&#1074;:</text><text fill="#000000" font-family="sans-serif" font-size="13" lengthAdjust="spacing" textLength="171.0671" x="552" y="348.2689">cache_updating_now = false</text><g class="message" data-participant-1="API" data-participant-2="CacheThread"><polygon fill="#181818" points="1286.7956,381.784,1296.7956,385.784,1286.7956,389.784,1290.7956,385.784" style="stroke:#181818;stroke-width:1;"/><line style="stroke:#181818;stroke-width:1;" x1="541.4712" x2="1292.7956" y1="385.784" y2="385.784"/><text fill="#000000" font-family="sans-serif" font-size="13" lengthAdjust="spacing" textLength="182.4161" x="548.4712" y="379.975">&#1047;&#1072;&#1087;&#1091;&#1089;&#1090;&#1080;&#1090;&#1100; &#1086;&#1073;&#1085;&#1086;&#1074;&#1083;&#1077;&#1085;&#1080;&#1077; &#1082;&#1077;&#1096;&#1072;</text></g><path d="M1313,398.784 L1313,461.784 L1552,461.784 L1552,408.784 L1542,398.784 L1313,398.784" fill="#FEFFDD" style="stroke:#181818;stroke-width:0.5;"/><path d="M1542,398.784 L1542,408.784 L1552,408.784 L1542,398.784" fill="#FEFFDD" style="stroke:#181818;stroke-width:0.5;"/><text fill="#000000" font-family="sans-serif" font-size="13" lengthAdjust="spacing" textLength="42.731" x="1319" y="417.681">&#1060;&#1083;&#1072;&#1075;&#1080;:</text><text fill="#000000" font-family="sans-serif" font-size="13" lengthAdjust="spacing" textLength="167.8172" x="1319" y="435.387">cache_updating_now = true</text><text fill="#000000" font-family="sans-serif" font-size="13" lengthAdjust="spacing" textLength="218.7772" x="1319" y="453.093">cache_has_pending_changes = false</text><g class="message" data-participant-1="API" data-participant-2="SPA"><polygon fill="#181818" points="266.942,486.608,256.942,490.608,266.942,494.608,262.942,490.608" style="stroke:#181818;stroke-width:1;"/><line style="stroke:#181818;stroke-width:1;stroke-dasharray:2,2;" x1="260.942" x2="535.4712" y1="490.608" y2="490.608"/><text fill="#000000" font-family="sans-serif" font-size="13" lengthAdjust="spacing" textLength="43.888" x="272.942" y="484.799">200 OK</text></g><g class="message" data-participant-1="SPA" data-participant-2="User"><polygon fill="#181818" points="52.8869,518.314,42.8869,522.314,52.8869,526.314,48.8869,522.314" style="stroke:#181818;stroke-width:1;"/><line style="stroke:#181818;stroke-width:1;stroke-dasharray:2,2;" x1="46.8869" x2="249.942" y1="522.314" y2="522.314"/><text fill="#000000" font-family="sans-serif" font-size="13" lengthAdjust="spacing" textLength="106.5481" x="58.8869" y="516.505">&#1057;&#1090;&#1072;&#1090;&#1091;&#1089; &#1086;&#1073;&#1085;&#1086;&#1074;&#1083;&#1077;&#1085;</text></g><g class="message" data-participant-1="CacheThread" data-participant-2="PG"><polygon fill="#181818" points="924.1125,567.7261,914.1125,571.7261,924.1125,575.7261,920.1125,571.7261" style="stroke:#181818;stroke-width:1;"/><line style="stroke:#181818;stroke-width:1;" x1="918.1125" x2="1297.7956" y1="571.7261" y2="571.7261"/><text fill="#000000" font-family="sans-serif" font-size="13" lengthAdjust="spacing" textLength="281.8403" x="930.1125" y="548.2111">SELECT * FROM orders WHERE status = 'active'</text><text fill="#000000" font-family="sans-serif" font-size="13" lengthAdjust="spacing" textLength="165.0742" x="930.1125" y="565.9171">ORDER BY created_at DESC</text></g><g class="message" data-participant-1="PG" data-participant-2="CacheThread"><polygon fill="#181818" points="1286.7956,599.4321,1296.7956,603.4321,1286.7956,607.4321,1290.7956,603.4321" style="stroke:#181818;stroke-width:1;"/><line style="stroke:#181818;stroke-width:1;stroke-dasharray:2,2;" x1="908.1125" x2="1292.7956" y1="603.4321" y2="603.4321"/><text fill="#000000" font-family="sans-serif" font-size="13" lengthAdjust="spacing" textLength="122.9411" x="915.1125" y="597.6231">&#1072;&#1082;&#1090;&#1091;&#1072;&#1083;&#1100;&#1085;&#1099;&#1077; &#1079;&#1072;&#1082;&#1072;&#1079;&#1099;</text></g><g class="message" data-participant-1="CacheThread" data-participant-2="Redis"><polygon fill="#181818" points="986.7254,631.1381,976.7254,635.1381,986.7254,639.1381,982.7254,635.1381" style="stroke:#181818;stroke-width:1;"/><line style="stroke:#181818;stroke-width:1;" x1="980.7254" x2="1297.7956" y1="635.1381" y2="635.1381"/><text fill="#000000" font-family="sans-serif" font-size="13" lengthAdjust="spacing" textLength="304.0703" x="992.7254" y="629.3291">SET orders:active {&#1086;&#1073;&#1085;&#1086;&#1074;&#1083;&#1077;&#1085;&#1085;&#1099;&#1077;_&#1076;&#1072;&#1085;&#1085;&#1099;&#1077;} EX 300</text></g><g class="message" data-participant-1="Redis" data-participant-2="CacheThread"><polygon fill="#181818" points="1291.7956,662.8441,1301.7956,666.8441,1291.7956,670.8441,1295.7956,666.8441" style="stroke:#181818;stroke-width:1;"/><line style="stroke:#181818;stroke-width:1;stroke-dasharray:2,2;" x1="970.7254" x2="1297.7956" y1="666.8441" y2="666.8441"/><text fill="#000000" font-family="sans-serif" font-size="13" lengthAdjust="spacing" textLength="18.2" x="977.7254" y="661.0351">OK</text></g><path d="M1308,679.8441 L1308,742.8441 L1547,742.8441 L1547,689.8441 L1537,679.8441 L1308,679.8441" fill="#FEFFDD" style="stroke:#181818;stroke-width:0.5;"/><path d="M1537,679.8441 L1537,689.8441 L1547,689.8441 L1537,679.8441" fill="#FEFFDD" style="stroke:#181818;stroke-width:0.5;"/><text fill="#000000" font-family="sans-serif" font-size="13" lengthAdjust="spacing" textLength="42.731" x="1314" y="698.7411">&#1060;&#1083;&#1072;&#1075;&#1080;:</text><text fill="#000000" font-family="sans-serif" font-size="13" lengthAdjust="spacing" textLength="171.0671" x="1314" y="716.4472">cache_updating_now = false</text><text fill="#000000" font-family="sans-serif" font-size="13" lengthAdjust="spacing" textLength="218.7772" x="1314" y="734.1532">cache_has_pending_changes = false</text><rect fill="#EEEEEE" height="3" style="stroke:#EEEEEE;stroke-width:1;" width="1623.7392" x="0" y="769.8152"/><line style="stroke:#000000;stroke-width:1;" x1="0" x2="1623.7392" y1="769.8152" y2="769.8152"/><line style="stroke:#000000;stroke-width:1;" x1="0" x2="1623.7392" y1="772.8152" y2="772.8152"/><rect fill="#EEEEEE" height="25.706" style="stroke:#000000;stroke-width:2;" width="284.1923" x="669.7735" y="757.9622"/><text fill="#000000" font-family="sans-serif" font-size="13" font-weight="bold" lengthAdjust="spacing" textLength="266.8123" x="675.7735" y="775.8592">&#1042;&#1090;&#1086;&#1088;&#1086;&#1077; &#1086;&#1073;&#1085;&#1086;&#1074;&#1083;&#1077;&#1085;&#1080;&#1077; (&#1074;&#1086; &#1074;&#1088;&#1077;&#1084;&#1103; &#1087;&#1077;&#1088;&#1074;&#1086;&#1075;&#1086;)</text><g class="message" data-participant-1="User" data-participant-2="SPA"><polygon fill="#181818" points="233.942,813.3742,243.942,817.3742,233.942,821.3742,237.942,817.3742" style="stroke:#181818;stroke-width:1;"/><line style="stroke:#181818;stroke-width:1;" x1="41.8869" x2="239.942" y1="817.3742" y2="817.3742"/><text fill="#000000" font-family="sans-serif" font-size="13" lengthAdjust="spacing" textLength="185.0551" x="48.8869" y="811.5652">&#1048;&#1079;&#1084;&#1077;&#1085;&#1080;&#1090;&#1100; &#1089;&#1090;&#1072;&#1090;&#1091;&#1089; &#1079;&#1072;&#1082;&#1072;&#1079;&#1072; #456</text></g><g class="message" data-participant-1="SPA" data-participant-2="API"><polygon fill="#181818" points="519.4712,845.0802,529.4712,849.0802,519.4712,853.0802,523.4712,849.0802" style="stroke:#181818;stroke-width:1;"/><line style="stroke:#181818;stroke-width:1;" x1="255.942" x2="525.4712" y1="849.0802" y2="849.0802"/><text fill="#000000" font-family="sans-serif" font-size="13" lengthAdjust="spacing" textLength="256.5292" x="262.942" y="843.2712">PUT /api/orders/456 {status: "&#1047;&#1072;&#1074;&#1077;&#1088;&#1096;&#1077;&#1085;"}</text></g><g class="message" data-participant-1="API" data-participant-2="PG"><polygon fill="#181818" points="891.1125,876.7862,901.1125,880.7862,891.1125,884.7862,895.1125,880.7862" style="stroke:#181818;stroke-width:1;"/><line style="stroke:#181818;stroke-width:1;" x1="541.4712" x2="897.1125" y1="880.7862" y2="880.7862"/><text fill="#000000" font-family="sans-serif" font-size="13" lengthAdjust="spacing" textLength="342.6414" x="548.4712" y="874.9772">UPDATE orders SET status = '&#1047;&#1072;&#1074;&#1077;&#1088;&#1096;&#1077;&#1085;' WHERE id = 456</text></g><g class="message" data-participant-1="PG" data-participant-2="API"><polygon fill="#181818" points="552.4712,908.4923,542.4712,912.4923,552.4712,916.4923,548.4712,912.4923" style="stroke:#181818;stroke-width:1;"/><line style="stroke:#181818;stroke-width:1;stroke-dasharray:2,2;" x1="546.4712" x2="907.1125" y1="912.4923" y2="912.4923"/><text fill="#000000" font-family="sans-serif" font-size="13" lengthAdjust="spacing" textLength="54.5741" x="558.4712" y="906.6833">SUCCESS</text></g><path d="M546,925.4923 L546,970.4923 L734,970.4923 L734,935.4923 L724,925.4923 L546,925.4923" fill="#FEFFDD" style="stroke:#181818;stroke-width:0.5;"/><path d="M724,925.4923 L724,935.4923 L734,935.4923 L724,925.4923" fill="#FEFFDD" style="stroke:#181818;stroke-width:0.5;"/><text fill="#000000" font-family="sans-serif" font-size="13" lengthAdjust="spacing" textLength="114.4261" x="552" y="944.3893">&#1055;&#1088;&#1086;&#1074;&#1077;&#1088;&#1082;&#1072; &#1092;&#1083;&#1072;&#1075;&#1086;&#1074;:</text><text fill="#000000" font-family="sans-serif" font-size="13" lengthAdjust="spacing" textLength="167.8172" x="552" y="962.0953">cache_updating_now = true</text><path d="M546,980.9043 L546,1025.9043 L782,1025.9043 L782,990.9043 L772,980.9043 L546,980.9043" fill="#FEFFDD" style="stroke:#181818;stroke-width:0.5;"/><path d="M772,980.9043 L772,990.9043 L782,990.9043 L772,980.9043" fill="#FEFFDD" style="stroke:#181818;stroke-width:0.5;"/><text fill="#000000" font-family="sans-serif" font-size="13" lengthAdjust="spacing" textLength="135.3041" x="552" y="999.8013">&#1059;&#1089;&#1090;&#1072;&#1085;&#1072;&#1074;&#1083;&#1080;&#1074;&#1072;&#1077;&#1084; &#1092;&#1083;&#1072;&#1075;:</text><text fill="#000000" font-family="sans-serif" font-size="13" lengthAdjust="spacing" textLength="215.5272" x="552" y="1017.5073">cache_has_pending_changes = true</text><g class="message" data-participant-1="API" data-participant-2="SPA"><polygon fill="#181818" points="266.942,1051.0223,256.942,1055.0223,266.942,1059.0223,262.942,1055.0223" style="stroke:#181818;stroke-width:1;"/><line style="stroke:#181818;stroke-width:1;stroke-dasharray:2,2;" x1="260.942" x2="535.4712" y1="1055.0223" y2="1055.0223"/><text fill="#000000" font-family="sans-serif" font-size="13" lengthAdjust="spacing" textLength="43.888" x="272.942" y="1049.2133">200 OK</text></g><g class="message" data-participant-1="SPA" data-participant-2="User"><polygon fill="#181818" points="52.8869,1082.7284,42.8869,1086.7284,52.8869,1090.7284,48.8869,1086.7284" style="stroke:#181818;stroke-width:1;"/><line style="stroke:#181818;stroke-width:1;stroke-dasharray:2,2;" x1="46.8869" x2="249.942" y1="1086.7284" y2="1086.7284"/><text fill="#000000" font-family="sans-serif" font-size="13" lengthAdjust="spacing" textLength="106.5481" x="58.8869" y="1080.9194">&#1057;&#1090;&#1072;&#1090;&#1091;&#1089; &#1086;&#1073;&#1085;&#1086;&#1074;&#1083;&#1077;&#1085;</text></g><rect fill="#EEEEEE" height="3" style="stroke:#EEEEEE;stroke-width:1;" width="1623.7392" x="0" y="1116.5814"/><line style="stroke:#000000;stroke-width:1;" x1="0" x2="1623.7392" y1="1116.5814" y2="1116.5814"/><line style="stroke:#000000;stroke-width:1;" x1="0" x2="1623.7392" y1="1119.5814" y2="1119.5814"/><rect fill="#EEEEEE" height="25.706" style="stroke:#000000;stroke-width:2;" width="341.5614" x="641.0889" y="1104.7284"/><text fill="#000000" font-family="sans-serif" font-size="13" font-weight="bold" lengthAdjust="spacing" textLength="324.1814" x="647.0889" y="1122.6254">&#1040;&#1074;&#1090;&#1086;&#1084;&#1072;&#1090;&#1080;&#1095;&#1077;&#1089;&#1082;&#1080;&#1081; &#1087;&#1077;&#1088;&#1077;&#1079;&#1072;&#1087;&#1091;&#1089;&#1082; &#1086;&#1073;&#1085;&#1086;&#1074;&#1083;&#1077;&#1085;&#1080;&#1103; &#1082;&#1077;&#1096;&#1072;</text><path d="M1313,1145.4344 L1313,1190.4344 L1618,1190.4344 L1618,1155.4344 L1608,1145.4344 L1313,1145.4344" fill="#FEFFDD" style="stroke:#181818;stroke-width:0.5;"/><path d="M1608,1145.4344 L1608,1155.4344 L1618,1155.4344 L1608,1145.4344" fill="#FEFFDD" style="stroke:#181818;stroke-width:0.5;"/><text fill="#000000" font-family="sans-serif" font-size="13" lengthAdjust="spacing" textLength="253.8382" x="1319" y="1164.3314">&#1055;&#1088;&#1077;&#1076;&#1099;&#1076;&#1091;&#1097;&#1077;&#1077; &#1086;&#1073;&#1085;&#1086;&#1074;&#1083;&#1077;&#1085;&#1080;&#1077; &#1079;&#1072;&#1074;&#1077;&#1088;&#1096;&#1080;&#1083;&#1086;&#1089;&#1100;</text><text fill="#000000" font-family="sans-serif" font-size="13" lengthAdjust="spacing" textLength="284.7392" x="1319" y="1182.0374">&#1055;&#1088;&#1086;&#1074;&#1077;&#1088;&#1082;&#1072;: cache_has_pending_changes = true</text><path d="M1313,1200.8464 L1313,1263.8464 L1552,1263.8464 L1552,1210.8464 L1542,1200.8464 L1313,1200.8464" fill="#FEFFDD" style="stroke:#181818;stroke-width:0.5;"/><path d="M1542,1200.8464 L1542,1210.8464 L1552,1210.8464 L1542,1200.8464" fill="#FEFFDD" style="stroke:#181818;stroke-width:0.5;"/><text fill="#000000" font-family="sans-serif" font-size="13" lengthAdjust="spacing" textLength="42.731" x="1319" y="1219.7434">&#1060;&#1083;&#1072;&#1075;&#1080;:</text><text fill="#000000" font-family="sans-serif" font-size="13" lengthAdjust="spacing" textLength="167.8172" x="1319" y="1237.4494">cache_updating_now = true</text><text fill="#000000" font-family="sans-serif" font-size="13" lengthAdjust="spacing" textLength="218.7772" x="1319" y="1255.1555">cache_has_pending_changes = false</text><g class="message" data-participant-1="CacheThread" data-participant-2="PG"><polygon fill="#181818" points="924.1125,1306.3765,914.1125,1310.3765,924.1125,1314.3765,920.1125,1310.3765" style="stroke:#181818;stroke-width:1;"/><line style="stroke:#181818;stroke-width:1;" x1="918.1125" x2="1297.7956" y1="1310.3765" y2="1310.3765"/><text fill="#000000" font-family="sans-serif" font-size="13" lengthAdjust="spacing" textLength="281.8403" x="930.1125" y="1286.8615">SELECT * FROM orders WHERE status = 'active'</text><text fill="#000000" font-family="sans-serif" font-size="13" lengthAdjust="spacing" textLength="165.0742" x="930.1125" y="1304.5675">ORDER BY created_at DESC</text></g><g class="message" data-participant-1="PG" data-participant-2="CacheThread"><polygon fill="#181818" points="1286.7956,1338.0825,1296.7956,1342.0825,1286.7956,1346.0825,1290.7956,1342.0825" style="stroke:#181818;stroke-width:1;"/><line style="stroke:#181818;stroke-width:1;stroke-dasharray:2,2;" x1="908.1125" x2="1292.7956" y1="1342.0825" y2="1342.0825"/><text fill="#000000" font-family="sans-serif" font-size="13" lengthAdjust="spacing" textLength="122.9411" x="915.1125" y="1336.2735">&#1072;&#1082;&#1090;&#1091;&#1072;&#1083;&#1100;&#1085;&#1099;&#1077; &#1079;&#1072;&#1082;&#1072;&#1079;&#1099;</text></g><g class="message" data-participant-1="CacheThread" data-participant-2="Redis"><polygon fill="#181818" points="986.7254,1369.7885,976.7254,1373.7885,986.7254,1377.7885,982.7254,1373.7885" style="stroke:#181818;stroke-width:1;"/><line style="stroke:#181818;stroke-width:1;" x1="980.7254" x2="1297.7956" y1="1373.7885" y2="1373.7885"/><text fill="#000000" font-family="sans-serif" font-size="13" lengthAdjust="spacing" textLength="304.0703" x="992.7254" y="1367.9795">SET orders:active {&#1086;&#1073;&#1085;&#1086;&#1074;&#1083;&#1077;&#1085;&#1085;&#1099;&#1077;_&#1076;&#1072;&#1085;&#1085;&#1099;&#1077;} EX 300</text></g><g class="message" data-participant-1="Redis" data-participant-2="CacheThread"><polygon fill="#181818" points="1291.7956,1401.4945,1301.7956,1405.4945,1291.7956,1409.4945,1295.7956,1405.4945" style="stroke:#181818;stroke-width:1;"/><line style="stroke:#181818;stroke-width:1;stroke-dasharray:2,2;" x1="970.7254" x2="1297.7956" y1="1405.4945" y2="1405.4945"/><text fill="#000000" font-family="sans-serif" font-size="13" lengthAdjust="spacing" textLength="18.2" x="977.7254" y="1399.6855">OK</text></g><path d="M1308,1418.4945 L1308,1481.4945 L1547,1481.4945 L1547,1428.4945 L1537,1418.4945 L1308,1418.4945" fill="#FEFFDD" style="stroke:#181818;stroke-width:0.5;"/><path d="M1537,1418.4945 L1537,1428.4945 L1547,1428.4945 L1537,1418.4945" fill="#FEFFDD" style="stroke:#181818;stroke-width:0.5;"/><text fill="#000000" font-family="sans-serif" font-size="13" lengthAdjust="spacing" textLength="42.731" x="1314" y="1437.3916">&#1060;&#1083;&#1072;&#1075;&#1080;:</text><text fill="#000000" font-family="sans-serif" font-size="13" lengthAdjust="spacing" textLength="171.0671" x="1314" y="1455.0976">cache_updating_now = false</text><text fill="#000000" font-family="sans-serif" font-size="13" lengthAdjust="spacing" textLength="218.7772" x="1314" y="1472.8036">cache_has_pending_changes = false</text></g></svg>